<svg width="83" height="42" viewBox="0 0 83 42" fill="none" xmlns="http://www.w3.org/2000/svg">
<path d="M28.2071 29.752L36.2349 21.1964L36.2618 21.221L41.8577 15.2571L41.8809 15.2324L50.0589 6.51659C52.754 3.64499 56.1875 1.68959 59.9253 0.897602C63.6631 0.105621 67.5373 0.51263 71.0581 2.06718C74.5788 3.62173 77.588 6.254 79.7052 9.63116C81.8223 13.0083 82.9523 16.9787 82.9523 21.0403C82.9523 25.1019 81.8223 29.0722 79.7052 32.4494C77.588 35.8266 74.5788 38.4588 71.0581 40.0134C67.5373 41.5679 63.6631 41.9749 59.9253 41.183C56.1875 40.391 52.754 38.4356 50.0589 35.564L47.3072 32.6313L52.7605 26.8235L55.5083 29.752C57.1251 31.4757 59.1852 32.6496 61.4281 33.1254C63.6709 33.6011 65.9958 33.3573 68.1086 32.4248C70.2215 31.4923 72.0274 29.9129 73.298 27.8865C74.5685 25.86 75.2467 23.4775 75.2467 21.0403C75.2467 18.603 74.5685 16.2205 73.298 14.1941C72.0274 12.1676 70.2215 10.5883 68.1086 9.65575C65.9958 8.72323 63.6709 8.47943 61.4281 8.95518C59.1852 9.43093 57.1251 10.6049 55.5083 12.3285L47.523 20.839L47.496 20.8144L33.6604 35.5599C30.9658 38.4326 27.5323 40.3892 23.7942 41.1821C20.0561 41.975 16.1813 41.5687 12.6599 40.0145C9.13851 38.4603 6.12867 35.828 4.01104 32.4506C1.89341 29.0732 0.763123 25.1024 0.763123 21.0403C0.763123 16.9782 1.89341 13.0074 4.01104 9.62994C6.12867 6.25254 9.13851 3.62028 12.6599 2.06607C16.1813 0.511868 20.0561 0.105526 23.7942 0.898449C27.5323 1.69137 30.9658 3.64794 33.6604 6.52069L36.4083 9.44926L30.9588 15.2571L28.2071 12.3285C26.5903 10.6049 24.5302 9.43093 22.2874 8.95518C20.0445 8.47943 17.7197 8.72323 15.6068 9.65575C13.494 10.5883 11.6881 12.1676 10.4175 14.1941C9.14693 16.2205 8.46875 18.603 8.46875 21.0403C8.46875 23.4775 9.14693 25.86 10.4175 27.8865C11.6881 29.9129 13.494 31.4923 15.6068 32.4248C17.7197 33.3573 20.0445 33.6011 22.2874 33.1254C24.5302 32.6496 26.5903 31.4757 28.2071 29.752Z" fill="#073288"/>
</svg>
