<svg width="100" height="50" viewBox="0 0 100 50" fill="none" xmlns="http://www.w3.org/2000/svg">
<path d="M33.0832 35.5942L42.7605 25.2805L42.793 25.3102L49.5387 18.1208L49.5666 18.0911L59.425 7.58435C62.6739 4.1227 66.8129 1.7655 71.3188 0.810783C75.8246 -0.143936 80.4949 0.346706 84.7391 2.22068C88.9833 4.09466 92.6108 7.26781 95.163 11.3389C97.7152 15.41 99.0774 20.1962 99.0774 25.0924C99.0774 29.9885 97.7152 34.7747 95.163 38.8458C92.6108 42.9169 88.9833 46.0901 84.7391 47.964C80.4949 49.838 75.8246 50.3287 71.3188 49.374C66.8129 48.4192 62.6739 46.062 59.425 42.6004L56.1079 39.0651L62.6817 32.0639L65.9942 35.5942C67.9432 37.672 70.4266 39.0872 73.1304 39.6607C75.8341 40.2342 78.6366 39.9403 81.1836 38.8162C83.7306 37.692 85.9076 35.7882 87.4392 33.3453C88.9709 30.9025 89.7884 28.0304 89.7884 25.0924C89.7884 22.1543 88.9709 19.2822 87.4392 16.8394C85.9076 14.3966 83.7306 12.4927 81.1836 11.3685C78.6366 10.2444 75.8341 9.95052 73.1304 10.524C70.4266 11.0975 67.9432 12.5127 65.9942 14.5905L56.3681 24.8497L56.3355 24.82L39.657 42.5954C36.4087 46.0585 32.2697 48.4171 27.7635 49.3729C23.2573 50.3288 18.5863 49.839 14.3413 47.9654C10.0964 46.0918 6.46805 42.9187 3.9153 38.8473C1.36254 34.7759 0 29.9891 0 25.0924C0 20.1956 1.36254 15.4088 3.9153 11.3374C6.46805 7.26604 10.0964 4.09291 14.3413 2.21935C18.5863 0.345787 23.2573 -0.144051 27.7635 0.811802C32.2697 1.76765 36.4087 4.12626 39.657 7.58931L42.9695 11.1196L36.4003 18.1208L33.0832 14.5905C31.1342 12.5127 28.6508 11.0975 25.9471 10.524C23.2433 9.95052 20.4408 10.2444 17.8938 11.3685C15.3468 12.4927 13.1698 14.3966 11.6382 16.8394C10.1065 19.2822 9.28898 22.1543 9.28898 25.0924C9.28898 28.0304 10.1065 30.9025 11.6382 33.3453C13.1698 35.7882 15.3468 37.692 17.8938 38.8162C20.4408 39.9403 23.2433 40.2342 25.9471 39.6607C28.6508 39.0872 31.1342 37.672 33.0832 35.5942Z" fill="white"/>
</svg>
